<svg width="154" height="41" viewBox="0 0 154 41" fill="none" xmlns="http://www.w3.org/2000/svg">
<g clip-path="url(#clip0_2_7)">
<path d="M36.3919 21.2708C36.3919 32.1043 29.4686 41.0441 18.196 41.0441C6.7902 41.0441 0 32.0602 0 21.2708C0 10.4813 6.83458 1.49739 18.1516 1.49739C29.4686 1.49739 36.3919 10.5253 36.3919 21.2708ZM18.1516 35.6274C26.362 35.6274 29.6905 28.4491 29.6905 21.2708C29.6905 14.0925 26.3176 6.91415 18.1072 6.91415C9.89683 6.91415 6.61268 14.1365 6.61268 21.2708C6.61268 28.405 10.03 35.6274 18.1516 35.6274Z" fill="white"/>
<path d="M49.2178 2.37816L66.5705 30.1666H66.6593V2.37816H73.0057V40.1193H65.9936L48.6852 12.3749H48.5077V40.1193H42.2057V2.37816H49.2178Z" fill="white"/>
<path d="M86.2753 2.37816V8.10319H80.1952V2.37816H86.2753ZM86.2753 12.8153V40.1193H80.1952V12.8153H86.2753Z" fill="white"/>
<path d="M128.171 21.2708C128.171 32.1043 121.247 41.0441 109.975 41.0441C98.569 41.0441 91.7788 32.0602 91.7788 21.2708C91.7788 10.4813 98.6578 1.49739 109.975 1.49739C121.292 1.49739 128.171 10.5253 128.171 21.2708ZM109.93 35.6274C118.141 35.6274 121.469 28.4491 121.469 21.2708C121.469 14.0925 118.052 6.91415 109.842 6.91415C101.631 6.91415 98.3471 14.1365 98.3471 21.2708C98.3471 28.405 101.809 35.6274 109.93 35.6274Z" fill="white"/>
<path d="M154 11.5381C154 17.9678 149.207 23.0763 142.639 23.0763C135.981 23.0763 131.188 18.0999 131.188 11.5381C131.188 5.06445 136.026 0 142.639 0C149.251 0 154 5.10849 154 11.5381ZM142.639 21.0505C148.053 21.0505 151.515 16.6907 151.515 11.5381C151.515 6.38561 148.053 2.02578 142.594 2.02578C137.135 2.02578 133.674 6.38561 133.674 11.5381C133.674 16.7787 137.091 21.0505 142.639 21.0505ZM143.216 5.37272C146.278 5.37272 147.787 6.51772 147.787 9.02793C147.787 11.1418 146.588 12.2868 144.414 12.507L148.009 18.0999H145.612L142.284 12.6391H140.286V18.0999H138.156V5.32868L143.216 5.37272ZM142.816 10.8776C145.079 10.8776 145.656 10.217 145.656 8.89581C145.656 7.70677 144.769 7.1783 142.994 7.1783H140.286V10.9216L142.816 10.8776Z" fill="white"/>
</g>
<defs>
<clipPath id="clip0_2_7">
<rect width="154" height="41" fill="white"/>
</clipPath>
</defs>
</svg>
