<svg width="114" height="34" viewBox="0 0 114 34" fill="none" xmlns="http://www.w3.org/2000/svg">
<path d="M27.9942 17.0452C27.9942 24.7079 23.049 31.0312 14.9971 31.0312C6.85014 31.0312 2 24.6767 2 17.0452C2 9.41359 6.88184 3.05913 14.9654 3.05913C23.049 3.05913 27.9942 9.44473 27.9942 17.0452ZM14.9654 27.1998C20.83 27.1998 23.2075 22.1225 23.2075 17.0452C23.2075 11.9678 20.7983 6.89049 14.9337 6.89049C9.06916 6.89049 6.72334 11.999 6.72334 17.0452C6.72334 22.0914 9.16427 27.1998 14.9654 27.1998Z" fill="#222021"/>
<path d="M37.1556 3.68211L49.5504 23.3373H49.6138V3.68211H54.147V30.3771H49.1383L36.7752 10.753H36.6484V30.3771H32.147V3.68211H37.1556Z" fill="#222021"/>
<path d="M63.6252 3.68211V7.73152H59.2822V3.68211H63.6252ZM63.6252 11.0645V30.3771H59.2822V11.0645H63.6252Z" fill="#222021"/>
<path d="M93.5506 17.0452C93.5506 24.7079 88.6054 31.0312 80.5535 31.0312C72.4065 31.0312 67.5564 24.6767 67.5564 17.0452C67.5564 9.41359 72.4699 3.05913 80.5535 3.05913C88.6371 3.05913 93.5506 9.44473 93.5506 17.0452ZM80.5218 27.1998C86.3864 27.1998 88.7639 22.1225 88.7639 17.0452C88.7639 11.9678 86.323 6.89049 80.4584 6.89049C74.5939 6.89049 72.248 11.999 72.248 17.0452C72.248 22.0914 74.7207 27.1998 80.5218 27.1998Z" fill="#222021"/>
<path d="M112 10.1611C112 14.7089 108.576 18.3222 103.885 18.3222C99.1297 18.3222 95.7061 14.8024 95.7061 10.1611C95.7061 5.58217 99.1614 2 103.885 2C108.608 2 112 5.61332 112 10.1611ZM103.885 16.8894C107.752 16.8894 110.225 13.8056 110.225 10.1611C110.225 6.51665 107.752 3.43287 103.853 3.43287C99.9539 3.43287 97.4813 6.51665 97.4813 10.1611C97.4813 13.8679 99.9222 16.8894 103.885 16.8894ZM104.297 5.80022C106.484 5.80022 107.562 6.6101 107.562 8.38561C107.562 9.88077 106.706 10.6907 105.153 10.8464L107.72 14.8024H106.009L103.631 10.9399H102.205V14.8024H100.683V5.76907L104.297 5.80022ZM104.012 9.69388C105.628 9.69388 106.04 9.22664 106.04 8.29216C106.04 7.45113 105.406 7.07734 104.138 7.07734H102.205V9.72503L104.012 9.69388Z" fill="#222021"/>
</svg>
